<svg width="919" height="420" viewBox="0 0 919 420" fill="none" xmlns="http://www.w3.org/2000/svg">
<path d="M25.04 78.96C20.56 78.96 16.2667 78.3733 12.16 77.2C8.05333 75.9733 4.74667 74.4 2.24 72.48L6.64 62.72C9.04 64.4267 11.8667 65.84 15.12 66.96C18.4267 68.0267 21.76 68.56 25.12 68.56C27.68 68.56 29.7333 68.32 31.28 67.84C32.88 67.3067 34.0533 66.5867 34.8 65.68C35.5467 64.7733 35.92 63.7333 35.92 62.56C35.92 61.0667 35.3333 59.8933 34.16 59.04C32.9867 58.1333 31.44 57.4133 29.52 56.88C27.6 56.2933 25.4667 55.76 23.12 55.28C20.8267 54.7467 18.5067 54.1067 16.16 53.36C13.8667 52.6133 11.76 51.6533 9.84 50.48C7.92 49.3067 6.34667 47.76 5.12 45.84C3.94667 43.92 3.36 41.4667 3.36 38.48C3.36 35.28 4.21333 32.3733 5.92 29.76C7.68 27.0933 10.2933 24.9867 13.76 23.44C17.28 21.84 21.68 21.04 26.96 21.04C30.48 21.04 33.9467 21.4667 37.36 22.32C40.7733 23.12 43.7867 24.3467 46.4 26L42.4 35.84C39.7867 34.3467 37.1733 33.2533 34.56 32.56C31.9467 31.8133 29.3867 31.44 26.88 31.44C24.3733 31.44 22.32 31.7333 20.72 32.32C19.12 32.9067 17.9733 33.68 17.28 34.64C16.5867 35.5467 16.24 36.6133 16.24 37.84C16.24 39.28 16.8267 40.4533 18 41.36C19.1733 42.2133 20.72 42.9067 22.64 43.44C24.56 43.9733 26.6667 44.5067 28.96 45.04C31.3067 45.5733 33.6267 46.1867 35.92 46.88C38.2667 47.5733 40.4 48.5067 42.32 49.68C44.24 50.8533 45.7867 52.4 46.96 54.32C48.1867 56.24 48.8 58.6667 48.8 61.6C48.8 64.7467 47.92 67.6267 46.16 70.24C44.4 72.8533 41.76 74.96 38.24 76.56C34.7733 78.16 30.3733 78.96 25.04 78.96ZM65.6556 78V22H78.6156V78H65.6556ZM99.9056 78V22H110.626L134.466 61.52H128.786L152.226 22H162.866L163.026 78H150.866L150.786 40.64H153.026L134.306 72.08H128.466L109.346 40.64H112.066V78H99.9056ZM184.312 78V22H208.552C213.565 22 217.885 22.8267 221.512 24.48C225.139 26.08 227.939 28.4 229.912 31.44C231.885 34.48 232.872 38.1067 232.872 42.32C232.872 46.48 231.885 50.08 229.912 53.12C227.939 56.16 225.139 58.5067 221.512 60.16C217.885 61.76 213.565 62.56 208.552 62.56H191.512L197.272 56.72V78H184.312ZM197.272 58.16L191.512 52H207.832C211.832 52 214.819 51.1467 216.792 49.44C218.765 47.7333 219.752 45.36 219.752 42.32C219.752 39.2267 218.765 36.8267 216.792 35.12C214.819 33.4133 211.832 32.56 207.832 32.56H191.512L197.272 26.4V58.16ZM250.124 78V22H263.084V67.44H291.164V78H250.124ZM318.326 44.56H345.286V54.64H318.326V44.56ZM319.286 67.6H349.766V78H306.406V22H348.726V32.4H319.286V67.6ZM416.334 78.96C412.227 78.96 408.574 78.2933 405.374 76.96C402.174 75.6267 399.64 73.8133 397.774 71.52C395.907 69.2267 394.974 66.5867 394.974 63.6C394.974 60.8267 395.587 58.3467 396.814 56.16C398.04 53.92 399.987 51.84 402.654 49.92C405.32 47.9467 408.707 46.0267 412.814 44.16C415.8 42.7733 418.147 41.5467 419.854 40.48C421.56 39.4133 422.76 38.4 423.454 37.44C424.147 36.4267 424.494 35.4133 424.494 34.4C424.494 33.0133 424.014 31.8933 423.054 31.04C422.147 30.1867 420.787 29.76 418.974 29.76C417.054 29.76 415.56 30.24 414.494 31.2C413.427 32.16 412.894 33.3867 412.894 34.88C412.894 35.68 413.054 36.48 413.374 37.28C413.694 38.0267 414.307 38.9067 415.214 39.92C416.12 40.88 417.4 42.1333 419.054 43.68L448.574 71.04L441.774 78.96L409.214 48.72C407.347 47.0133 405.854 45.4133 404.734 43.92C403.614 42.4267 402.787 40.96 402.254 39.52C401.774 38.08 401.534 36.5867 401.534 35.04C401.534 32.32 402.254 29.92 403.694 27.84C405.134 25.76 407.16 24.16 409.774 23.04C412.387 21.8667 415.454 21.28 418.974 21.28C422.227 21.28 425.027 21.8133 427.374 22.88C429.774 23.8933 431.64 25.36 432.974 27.28C434.36 29.2 435.054 31.4933 435.054 34.16C435.054 36.5067 434.467 38.6667 433.294 40.64C432.12 42.56 430.28 44.3733 427.774 46.08C425.32 47.7867 422.094 49.52 418.094 51.28C415.374 52.5067 413.214 53.7067 411.614 54.88C410.067 56 408.947 57.1467 408.254 58.32C407.56 59.4933 407.214 60.8 407.214 62.24C407.214 63.5733 407.614 64.7733 408.414 65.84C409.267 66.9067 410.44 67.7333 411.934 68.32C413.427 68.9067 415.187 69.2 417.214 69.2C420.467 69.2 423.454 68.4533 426.174 66.96C428.894 65.4133 431.187 63.1467 433.054 60.16C434.974 57.12 436.334 53.44 437.134 49.12L447.134 52.24C446.014 57.68 444.014 62.4 441.134 66.4C438.254 70.4 434.707 73.4933 430.494 75.68C426.28 77.8667 421.56 78.96 416.334 78.96ZM495.593 78V22H506.313L530.153 61.52H524.473L547.913 22H558.553L558.713 78H546.553L546.473 40.64H548.713L529.993 72.08H524.153L505.033 40.64H507.753V78H495.593ZM607.199 78.96C602.773 78.96 598.666 78.24 594.879 76.8C591.146 75.36 587.893 73.3333 585.119 70.72C582.399 68.1067 580.266 65.04 578.719 61.52C577.226 58 576.479 54.16 576.479 50C576.479 45.84 577.226 42 578.719 38.48C580.266 34.96 582.426 31.8933 585.199 29.28C587.973 26.6667 591.226 24.64 594.959 23.2C598.693 21.76 602.746 21.04 607.119 21.04C611.546 21.04 615.599 21.76 619.279 23.2C623.013 24.64 626.239 26.6667 628.959 29.28C631.733 31.8933 633.893 34.96 635.439 38.48C636.986 41.9467 637.759 45.7867 637.759 50C637.759 54.16 636.986 58.0267 635.439 61.6C633.893 65.12 631.733 68.1867 628.959 70.8C626.239 73.36 623.013 75.36 619.279 76.8C615.599 78.24 611.573 78.96 607.199 78.96ZM607.119 67.92C609.626 67.92 611.919 67.4933 613.999 66.64C616.133 65.7867 617.999 64.56 619.599 62.96C621.199 61.36 622.426 59.4667 623.279 57.28C624.186 55.0933 624.639 52.6667 624.639 50C624.639 47.3333 624.186 44.9067 623.279 42.72C622.426 40.5333 621.199 38.64 619.599 37.04C618.053 35.44 616.213 34.2133 614.079 33.36C611.946 32.5067 609.626 32.08 607.119 32.08C604.613 32.08 602.293 32.5067 600.159 33.36C598.079 34.2133 596.239 35.44 594.639 37.04C593.039 38.64 591.786 40.5333 590.879 42.72C590.026 44.9067 589.599 47.3333 589.599 50C589.599 52.6133 590.026 55.04 590.879 57.28C591.786 59.4667 593.013 61.36 594.559 62.96C596.159 64.56 598.026 65.7867 600.159 66.64C602.293 67.4933 604.613 67.92 607.119 67.92ZM655.499 78V22H680.939C687.019 22 692.379 23.1733 697.019 25.52C701.659 27.8133 705.286 31.04 707.899 35.2C710.513 39.36 711.819 44.2933 711.819 50C711.819 55.6533 710.513 60.5867 707.899 64.8C705.286 68.96 701.659 72.2133 697.019 74.56C692.379 76.8533 687.019 78 680.939 78H655.499ZM668.459 67.36H680.299C684.033 67.36 687.259 66.6667 689.979 65.28C692.753 63.84 694.886 61.8133 696.379 59.2C697.926 56.5867 698.699 53.52 698.699 50C698.699 46.4267 697.926 43.36 696.379 40.8C694.886 38.1867 692.753 36.1867 689.979 34.8C687.259 33.36 684.033 32.64 680.299 32.64H668.459V67.36ZM741.513 44.56H768.473V54.64H741.513V44.56ZM742.473 67.6H772.953V78H729.593V22H771.913V32.4H742.473V67.6ZM791.265 78V22H815.505C820.518 22 824.838 22.8267 828.465 24.48C832.092 26.08 834.892 28.4 836.865 31.44C838.838 34.48 839.825 38.1067 839.825 42.32C839.825 46.48 838.838 50.08 836.865 53.12C834.892 56.1067 832.092 58.4 828.465 60C824.838 61.6 820.518 62.4 815.505 62.4H798.465L804.225 56.72V78H791.265ZM826.865 78L812.865 57.68H826.705L840.865 78H826.865ZM804.225 58.16L798.465 52.08H814.785C818.785 52.08 821.772 51.2267 823.745 49.52C825.718 47.76 826.705 45.36 826.705 42.32C826.705 39.2267 825.718 36.8267 823.745 35.12C821.772 33.4133 818.785 32.56 814.785 32.56H798.465L804.225 26.4V58.16ZM858.093 78V22H868.813L901.853 62.32H896.653V22H909.453V78H898.813L865.693 37.68H870.893V78H858.093Z" fill="white"/>
<path d="M157.246 135L152.998 122.4H154.366L158.344 134.262H157.66L161.764 122.4H162.988L167.038 134.262H166.39L170.404 122.4H171.682L167.434 135H166.03L162.16 123.75H162.52L158.632 135H157.246ZM180.712 128.034H187.372V129.168H180.712V128.034ZM180.856 133.848H188.434V135H179.524V122.4H188.164V123.552H180.856V133.848ZM207.076 135V122.4H208.174L213.934 132.228H213.358L219.064 122.4H220.162V135H218.884V124.398H219.19L213.934 133.398H213.304L208.012 124.398H208.354V135H207.076ZM227.651 135L233.411 122.4H234.725L240.485 135H239.081L233.789 123.174H234.329L229.037 135H227.651ZM229.919 131.634L230.315 130.554H237.641L238.037 131.634H229.919ZM249.121 131.868L249.067 130.248L256.699 122.4H258.229L252.667 128.232L251.911 129.042L249.121 131.868ZM247.969 135V122.4H249.301V135H247.969ZM257.023 135L251.587 128.736L252.487 127.764L258.607 135H257.023ZM267.354 128.034H274.014V129.168H267.354V128.034ZM267.498 133.848H275.076V135H266.166V122.4H274.806V123.552H267.498V133.848ZM296.166 135V123.552H291.738V122.4H301.926V123.552H297.498V135H296.166ZM318.67 122.4H319.984V135H318.67V122.4ZM310.786 135H309.454V122.4H310.786V135ZM318.796 129.186H310.642V128.016H318.796V129.186ZM330.685 128.034H337.345V129.168H330.685V128.034ZM330.829 133.848H338.407V135H329.497V122.4H338.137V123.552H330.829V133.848ZM359.911 135L355.663 122.4H357.031L361.009 134.262H360.325L364.429 122.4H365.653L369.703 134.262H369.055L373.069 122.4H374.347L370.099 135H368.695L364.825 123.75H365.185L361.297 135H359.911ZM387.592 135.108C386.644 135.108 385.762 134.952 384.946 134.64C384.142 134.316 383.44 133.866 382.84 133.29C382.252 132.702 381.79 132.024 381.454 131.256C381.13 130.476 380.968 129.624 380.968 128.7C380.968 127.776 381.13 126.93 381.454 126.162C381.79 125.382 382.252 124.704 382.84 124.128C383.44 123.54 384.142 123.09 384.946 122.778C385.75 122.454 386.632 122.292 387.592 122.292C388.54 122.292 389.416 122.454 390.22 122.778C391.024 123.09 391.72 123.534 392.308 124.11C392.908 124.686 393.37 125.364 393.694 126.144C394.03 126.924 394.198 127.776 394.198 128.7C394.198 129.624 394.03 130.476 393.694 131.256C393.37 132.036 392.908 132.714 392.308 133.29C391.72 133.866 391.024 134.316 390.22 134.64C389.416 134.952 388.54 135.108 387.592 135.108ZM387.592 133.92C388.348 133.92 389.044 133.794 389.68 133.542C390.328 133.278 390.886 132.912 391.354 132.444C391.834 131.964 392.206 131.412 392.47 130.788C392.734 130.152 392.866 129.456 392.866 128.7C392.866 127.944 392.734 127.254 392.47 126.63C392.206 125.994 391.834 125.442 391.354 124.974C390.886 124.494 390.328 124.128 389.68 123.876C389.044 123.612 388.348 123.48 387.592 123.48C386.836 123.48 386.134 123.612 385.486 123.876C384.838 124.128 384.274 124.494 383.794 124.974C383.326 125.442 382.954 125.994 382.678 126.63C382.414 127.254 382.282 127.944 382.282 128.7C382.282 129.444 382.414 130.134 382.678 130.77C382.954 131.406 383.326 131.964 383.794 132.444C384.274 132.912 384.838 133.278 385.486 133.542C386.134 133.794 386.836 133.92 387.592 133.92ZM402.583 135V122.4H407.299C408.367 122.4 409.285 122.574 410.053 122.922C410.821 123.258 411.409 123.75 411.817 124.398C412.237 125.034 412.447 125.808 412.447 126.72C412.447 127.608 412.237 128.376 411.817 129.024C411.409 129.66 410.821 130.152 410.053 130.5C409.285 130.836 408.367 131.004 407.299 131.004H403.321L403.915 130.392V135H402.583ZM411.187 135L407.947 130.428H409.387L412.645 135H411.187ZM403.915 130.5L403.321 129.87H407.263C408.523 129.87 409.477 129.594 410.125 129.042C410.785 128.49 411.115 127.716 411.115 126.72C411.115 125.712 410.785 124.932 410.125 124.38C409.477 123.828 408.523 123.552 407.263 123.552H403.321L403.915 122.922V130.5ZM420.991 135V122.4H422.323V133.848H429.379V135H420.991ZM436.991 135V122.4H442.121C443.465 122.4 444.641 122.67 445.649 123.21C446.669 123.738 447.461 124.476 448.025 125.424C448.589 126.372 448.871 127.464 448.871 128.7C448.871 129.936 448.589 131.028 448.025 131.976C447.461 132.924 446.669 133.668 445.649 134.208C444.641 134.736 443.465 135 442.121 135H436.991ZM438.323 133.848H442.049C443.165 133.848 444.131 133.632 444.947 133.2C445.775 132.756 446.417 132.15 446.873 131.382C447.329 130.602 447.557 129.708 447.557 128.7C447.557 127.68 447.329 126.786 446.873 126.018C446.417 125.25 445.775 124.65 444.947 124.218C444.131 123.774 443.165 123.552 442.049 123.552H438.323V133.848ZM467.373 135V122.4H472.809C474.213 122.4 475.299 122.682 476.067 123.246C476.847 123.81 477.237 124.608 477.237 125.64C477.237 126.324 477.075 126.9 476.751 127.368C476.439 127.836 476.007 128.19 475.455 128.43C474.915 128.67 474.321 128.79 473.673 128.79L473.979 128.358C474.783 128.358 475.473 128.484 476.049 128.736C476.637 128.976 477.093 129.342 477.417 129.834C477.741 130.314 477.903 130.914 477.903 131.634C477.903 132.702 477.507 133.53 476.715 134.118C475.935 134.706 474.753 135 473.169 135H467.373ZM468.705 133.902H473.151C474.255 133.902 475.101 133.716 475.689 133.344C476.277 132.96 476.571 132.354 476.571 131.526C476.571 130.71 476.277 130.116 475.689 129.744C475.101 129.36 474.255 129.168 473.151 129.168H468.561V128.07H472.719C473.727 128.07 474.507 127.878 475.059 127.494C475.623 127.11 475.905 126.54 475.905 125.784C475.905 125.016 475.623 124.446 475.059 124.074C474.507 123.69 473.727 123.498 472.719 123.498H468.705V133.902ZM487.531 128.034H494.191V129.168H487.531V128.034ZM487.675 133.848H495.253V135H486.343V122.4H494.983V123.552H487.675V133.848ZM501.768 135L507.528 122.4H508.842L514.602 135H513.198L507.906 123.174H508.446L503.154 135H501.768ZM504.036 131.634L504.432 130.554H511.758L512.154 131.634H504.036ZM526.899 135.108C525.291 135.108 524.025 134.646 523.101 133.722C522.177 132.798 521.715 131.43 521.715 129.618V122.4H523.047V129.564C523.047 131.052 523.383 132.15 524.055 132.858C524.727 133.566 525.675 133.92 526.899 133.92C528.135 133.92 529.089 133.566 529.761 132.858C530.433 132.15 530.769 131.052 530.769 129.564V122.4H532.065V129.618C532.065 131.43 531.603 132.798 530.679 133.722C529.767 134.646 528.507 135.108 526.899 135.108ZM543.68 135V123.552H539.252V122.4H549.44V123.552H545.012V135H543.68ZM556.968 135V122.4H558.3V135H556.968ZM568.988 128.502H575.648V129.654H568.988V128.502ZM569.132 135H567.8V122.4H576.44V123.552H569.132V135ZM589.667 135.108C588.059 135.108 586.793 134.646 585.869 133.722C584.945 132.798 584.483 131.43 584.483 129.618V122.4H585.815V129.564C585.815 131.052 586.151 132.15 586.823 132.858C587.495 133.566 588.443 133.92 589.667 133.92C590.903 133.92 591.857 133.566 592.529 132.858C593.201 132.15 593.537 131.052 593.537 129.564V122.4H594.833V129.618C594.833 131.43 594.371 132.798 593.447 133.722C592.535 134.646 591.275 135.108 589.667 135.108ZM604.246 135V122.4H605.578V133.848H612.634V135H604.246ZM631.545 128.034H638.205V129.168H631.545V128.034ZM631.689 133.848H639.267V135H630.357V122.4H638.997V123.552H631.689V133.848ZM651.204 135L645.624 122.4H647.064L652.284 134.262H651.492L656.748 122.4H658.098L652.518 135H651.204ZM666.515 128.034H673.175V129.168H666.515V128.034ZM666.659 133.848H674.237V135H665.327V122.4H673.967V123.552H666.659V133.848ZM682.768 135V122.4H687.484C688.552 122.4 689.47 122.574 690.238 122.922C691.006 123.258 691.594 123.75 692.002 124.398C692.422 125.034 692.632 125.808 692.632 126.72C692.632 127.608 692.422 128.376 692.002 129.024C691.594 129.66 691.006 130.152 690.238 130.5C689.47 130.836 688.552 131.004 687.484 131.004H683.506L684.1 130.392V135H682.768ZM691.372 135L688.132 130.428H689.572L692.83 135H691.372ZM684.1 130.5L683.506 129.87H687.448C688.708 129.87 689.662 129.594 690.31 129.042C690.97 128.49 691.3 127.716 691.3 126.72C691.3 125.712 690.97 124.932 690.31 124.38C689.662 123.828 688.708 123.552 687.448 123.552H683.506L684.1 122.922V130.5ZM704.006 135V130.32L704.312 131.148L698.966 122.4H700.388L705.086 130.086H704.33L709.028 122.4H710.36L705.014 131.148L705.32 130.32V135H704.006ZM717.562 135V122.4H722.692C724.036 122.4 725.212 122.67 726.22 123.21C727.24 123.738 728.032 124.476 728.596 125.424C729.16 126.372 729.442 127.464 729.442 128.7C729.442 129.936 729.16 131.028 728.596 131.976C728.032 132.924 727.24 133.668 726.22 134.208C725.212 134.736 724.036 135 722.692 135H717.562ZM718.894 133.848H722.62C723.736 133.848 724.702 133.632 725.518 133.2C726.346 132.756 726.988 132.15 727.444 131.382C727.9 130.602 728.128 129.708 728.128 128.7C728.128 127.68 727.9 126.786 727.444 126.018C726.988 125.25 726.346 124.65 725.518 124.218C724.702 123.774 723.736 123.552 722.62 123.552H718.894V133.848ZM735.641 135L741.401 122.4H742.715L748.475 135H747.071L741.779 123.174H742.319L737.027 135H735.641ZM737.909 131.634L738.305 130.554H745.631L746.027 131.634H737.909ZM758.227 135V130.32L758.533 131.148L753.187 122.4H754.609L759.307 130.086H758.551L763.249 122.4H764.581L759.235 131.148L759.541 130.32V135H758.227Z" fill="white"/>
<path d="M463.905 399.111C463.961 399.167 463.988 399.231 463.988 399.304C463.988 399.376 463.961 399.44 463.905 399.496L460.004 403.397C459.948 403.453 459.884 403.48 459.812 403.48C459.739 403.48 459.675 403.453 459.619 403.397L455.718 399.496C455.663 399.44 455.635 399.376 455.635 399.304C455.635 399.231 455.663 399.167 455.718 399.111L456.137 398.693C456.193 398.637 456.257 398.609 456.329 398.609C456.402 398.609 456.466 398.637 456.522 398.693L459.812 401.982L463.101 398.693C463.157 398.637 463.221 398.609 463.294 398.609C463.366 398.609 463.43 398.637 463.486 398.693L463.905 399.111Z" fill="white"/>
<path opacity="0.7" d="M460.001 380.5C470.796 380.5 479.544 389.232 479.544 400C479.544 410.768 470.796 419.5 460.001 419.5C449.207 419.5 440.457 410.769 440.457 400C440.457 389.231 449.207 380.5 460.001 380.5Z" stroke="white"/>
</svg>
